<svg xmlns="http://www.w3.org/2000/svg" viewBox="0 0 1600 1200" role="img" aria-label="Warehouse shelves">
  <defs>
    <linearGradient id="g" x1="0" x2="1" y1="0" y2="1">
      <stop offset="0%" stop-color="#0f172a"/>
      <stop offset="100%" stop-color="#334155"/>
    </linearGradient>
  </defs>
  <rect width="1600" height="1200" fill="url(#g)"/>
  <g fill="#94a3b8" opacity="0.28">
    <rect x="140" y="220" width="1320" height="70" rx="8"/>
    <rect x="140" y="420" width="1320" height="70" rx="8"/>
    <rect x="140" y="620" width="1320" height="70" rx="8"/>
    <rect x="140" y="820" width="1320" height="70" rx="8"/>
  </g>
  <g fill="#e2e8f0" opacity="0.34">
    <rect x="220" y="290" width="110" height="130" rx="8"/>
    <rect x="380" y="290" width="110" height="130" rx="8"/>
    <rect x="540" y="290" width="110" height="130" rx="8"/>
    <rect x="700" y="290" width="110" height="130" rx="8"/>
    <rect x="860" y="290" width="110" height="130" rx="8"/>
    <rect x="1020" y="290" width="110" height="130" rx="8"/>
    <rect x="1180" y="290" width="110" height="130" rx="8"/>
  </g>
</svg>
